<mxfile host="app.diagrams.net" modified="2022-06-24T01:21:14.643Z" agent="5.0 (Macintosh; Intel Mac OS X 10_15_7) AppleWebKit/605.1.15 (KHTML, like Gecko) Version/15.5 Safari/605.1.15" etag="4AnC_boEgvh4ZFzPMHL2" version="20.0.3" type="github">
  <diagram id="DUcOTwgmE_oHp_y_H2TQ" name="Page-1">
    <mxGraphModel dx="1963" dy="1765" grid="1" gridSize="10" guides="1" tooltips="1" connect="1" arrows="1" fold="1" page="1" pageScale="1" pageWidth="850" pageHeight="1100" math="0" shadow="0" extFonts="Permanent Marker^https://fonts.googleapis.com/css?family=Permanent+Marker">
      <root>
        <mxCell id="0" />
        <mxCell id="1" parent="0" />
        <mxCell id="iENfDvWW6Z7JMJDABJM3-51" style="edgeStyle=none;rounded=0;orthogonalLoop=1;jettySize=auto;html=1;entryX=0.5;entryY=1;entryDx=0;entryDy=0;endArrow=none;endFill=0;strokeWidth=1;" parent="1" source="iENfDvWW6Z7JMJDABJM3-1" target="iENfDvWW6Z7JMJDABJM3-47" edge="1">
          <mxGeometry relative="1" as="geometry" />
        </mxCell>
        <mxCell id="uWEL0mA8yHf8SfYQRgKw-31" style="edgeStyle=orthogonalEdgeStyle;rounded=0;orthogonalLoop=1;jettySize=auto;html=1;exitX=0;exitY=0.5;exitDx=0;exitDy=0;entryX=1;entryY=0.5;entryDx=0;entryDy=0;endArrow=none;endFill=0;strokeWidth=3;" parent="1" source="iENfDvWW6Z7JMJDABJM3-1" target="uWEL0mA8yHf8SfYQRgKw-30" edge="1">
          <mxGeometry relative="1" as="geometry" />
        </mxCell>
        <mxCell id="iENfDvWW6Z7JMJDABJM3-1" value="Recipes&lt;br&gt;" style="rounded=0;whiteSpace=wrap;html=1;" parent="1" vertex="1">
          <mxGeometry x="180" y="470" width="120" height="60" as="geometry" />
        </mxCell>
        <mxCell id="iENfDvWW6Z7JMJDABJM3-50" style="edgeStyle=none;rounded=0;orthogonalLoop=1;jettySize=auto;html=1;entryX=0.5;entryY=0;entryDx=0;entryDy=0;endArrow=none;endFill=0;fontStyle=1;strokeWidth=3;" parent="1" source="iENfDvWW6Z7JMJDABJM3-2" target="iENfDvWW6Z7JMJDABJM3-47" edge="1">
          <mxGeometry relative="1" as="geometry" />
        </mxCell>
        <mxCell id="uWEL0mA8yHf8SfYQRgKw-97" style="edgeStyle=none;rounded=0;orthogonalLoop=1;jettySize=auto;html=1;exitX=0;exitY=1;exitDx=0;exitDy=0;entryX=1;entryY=0.5;entryDx=0;entryDy=0;endArrow=none;endFill=0;strokeWidth=3;" parent="1" source="iENfDvWW6Z7JMJDABJM3-2" target="uWEL0mA8yHf8SfYQRgKw-96" edge="1">
          <mxGeometry relative="1" as="geometry" />
        </mxCell>
        <mxCell id="iENfDvWW6Z7JMJDABJM3-2" value="Sessions" style="rounded=0;whiteSpace=wrap;html=1;" parent="1" vertex="1">
          <mxGeometry x="180" y="130" width="120" height="60" as="geometry" />
        </mxCell>
        <mxCell id="iENfDvWW6Z7JMJDABJM3-17" style="rounded=0;orthogonalLoop=1;jettySize=auto;html=1;entryX=1;entryY=0;entryDx=0;entryDy=0;endArrow=none;endFill=0;" parent="1" source="iENfDvWW6Z7JMJDABJM3-8" target="iENfDvWW6Z7JMJDABJM3-2" edge="1">
          <mxGeometry relative="1" as="geometry" />
        </mxCell>
        <mxCell id="iENfDvWW6Z7JMJDABJM3-8" value="start_time" style="ellipse;whiteSpace=wrap;html=1;" parent="1" vertex="1">
          <mxGeometry x="310" y="60" width="60" height="40" as="geometry" />
        </mxCell>
        <mxCell id="iENfDvWW6Z7JMJDABJM3-16" style="edgeStyle=orthogonalEdgeStyle;rounded=0;orthogonalLoop=1;jettySize=auto;html=1;entryX=0.5;entryY=0;entryDx=0;entryDy=0;endArrow=none;endFill=0;" parent="1" source="iENfDvWW6Z7JMJDABJM3-9" target="iENfDvWW6Z7JMJDABJM3-2" edge="1">
          <mxGeometry relative="1" as="geometry" />
        </mxCell>
        <mxCell id="iENfDvWW6Z7JMJDABJM3-9" value="capacity" style="ellipse;whiteSpace=wrap;html=1;" parent="1" vertex="1">
          <mxGeometry x="210" y="60" width="60" height="40" as="geometry" />
        </mxCell>
        <mxCell id="iENfDvWW6Z7JMJDABJM3-13" style="edgeStyle=orthogonalEdgeStyle;rounded=0;orthogonalLoop=1;jettySize=auto;html=1;endArrow=none;endFill=0;" parent="1" source="iENfDvWW6Z7JMJDABJM3-10" target="iENfDvWW6Z7JMJDABJM3-2" edge="1">
          <mxGeometry relative="1" as="geometry" />
        </mxCell>
        <mxCell id="iENfDvWW6Z7JMJDABJM3-10" value="id" style="ellipse;whiteSpace=wrap;html=1;fontStyle=4" parent="1" vertex="1">
          <mxGeometry x="70" y="140" width="60" height="40" as="geometry" />
        </mxCell>
        <mxCell id="iENfDvWW6Z7JMJDABJM3-14" style="rounded=0;orthogonalLoop=1;jettySize=auto;html=1;entryX=0.078;entryY=-0.019;entryDx=0;entryDy=0;entryPerimeter=0;endArrow=none;endFill=0;" parent="1" source="iENfDvWW6Z7JMJDABJM3-11" target="iENfDvWW6Z7JMJDABJM3-2" edge="1">
          <mxGeometry relative="1" as="geometry" />
        </mxCell>
        <mxCell id="iENfDvWW6Z7JMJDABJM3-11" value="host" style="ellipse;whiteSpace=wrap;html=1;" parent="1" vertex="1">
          <mxGeometry x="110" y="60" width="60" height="40" as="geometry" />
        </mxCell>
        <mxCell id="iENfDvWW6Z7JMJDABJM3-19" style="edgeStyle=none;rounded=0;orthogonalLoop=1;jettySize=auto;html=1;entryX=1;entryY=0.5;entryDx=0;entryDy=0;endArrow=none;endFill=0;" parent="1" source="iENfDvWW6Z7JMJDABJM3-12" target="iENfDvWW6Z7JMJDABJM3-2" edge="1">
          <mxGeometry relative="1" as="geometry" />
        </mxCell>
        <mxCell id="iENfDvWW6Z7JMJDABJM3-12" value="guests&lt;br&gt;" style="ellipse;whiteSpace=wrap;html=1;" parent="1" vertex="1">
          <mxGeometry x="350" y="140" width="60" height="40" as="geometry" />
        </mxCell>
        <mxCell id="iENfDvWW6Z7JMJDABJM3-39" style="edgeStyle=none;rounded=0;orthogonalLoop=1;jettySize=auto;html=1;entryX=0.25;entryY=1;entryDx=0;entryDy=0;endArrow=none;endFill=0;" parent="1" source="iENfDvWW6Z7JMJDABJM3-20" target="iENfDvWW6Z7JMJDABJM3-1" edge="1">
          <mxGeometry relative="1" as="geometry" />
        </mxCell>
        <mxCell id="uWEL0mA8yHf8SfYQRgKw-55" style="edgeStyle=none;rounded=0;orthogonalLoop=1;jettySize=auto;html=1;exitX=0;exitY=0.5;exitDx=0;exitDy=0;endArrow=none;endFill=0;" parent="1" source="iENfDvWW6Z7JMJDABJM3-20" target="uWEL0mA8yHf8SfYQRgKw-53" edge="1">
          <mxGeometry relative="1" as="geometry" />
        </mxCell>
        <mxCell id="uWEL0mA8yHf8SfYQRgKw-56" style="edgeStyle=none;rounded=0;orthogonalLoop=1;jettySize=auto;html=1;exitX=0.5;exitY=1;exitDx=0;exitDy=0;endArrow=none;endFill=0;" parent="1" source="iENfDvWW6Z7JMJDABJM3-20" target="uWEL0mA8yHf8SfYQRgKw-52" edge="1">
          <mxGeometry relative="1" as="geometry" />
        </mxCell>
        <mxCell id="uWEL0mA8yHf8SfYQRgKw-57" style="edgeStyle=none;rounded=0;orthogonalLoop=1;jettySize=auto;html=1;exitX=1;exitY=1;exitDx=0;exitDy=0;endArrow=none;endFill=0;" parent="1" source="iENfDvWW6Z7JMJDABJM3-20" target="uWEL0mA8yHf8SfYQRgKw-54" edge="1">
          <mxGeometry relative="1" as="geometry" />
        </mxCell>
        <mxCell id="iENfDvWW6Z7JMJDABJM3-20" value="meal-type" style="ellipse;whiteSpace=wrap;html=1;" parent="1" vertex="1">
          <mxGeometry x="70" y="580" width="80" height="40" as="geometry" />
        </mxCell>
        <mxCell id="iENfDvWW6Z7JMJDABJM3-43" style="edgeStyle=none;rounded=0;orthogonalLoop=1;jettySize=auto;html=1;entryX=0.668;entryY=1.038;entryDx=0;entryDy=0;entryPerimeter=0;endArrow=none;endFill=0;" parent="1" source="iENfDvWW6Z7JMJDABJM3-23" target="iENfDvWW6Z7JMJDABJM3-1" edge="1">
          <mxGeometry relative="1" as="geometry" />
        </mxCell>
        <mxCell id="iENfDvWW6Z7JMJDABJM3-23" value="cook_time" style="ellipse;whiteSpace=wrap;html=1;" parent="1" vertex="1">
          <mxGeometry x="300" y="560" width="60" height="40" as="geometry" />
        </mxCell>
        <mxCell id="iENfDvWW6Z7JMJDABJM3-41" style="edgeStyle=none;rounded=0;orthogonalLoop=1;jettySize=auto;html=1;entryX=0.869;entryY=0.01;entryDx=0;entryDy=0;entryPerimeter=0;endArrow=none;endFill=0;" parent="1" source="iENfDvWW6Z7JMJDABJM3-24" target="iENfDvWW6Z7JMJDABJM3-1" edge="1">
          <mxGeometry relative="1" as="geometry" />
        </mxCell>
        <mxCell id="iENfDvWW6Z7JMJDABJM3-24" value="rating" style="ellipse;whiteSpace=wrap;html=1;" parent="1" vertex="1">
          <mxGeometry x="310" y="380" width="60" height="40" as="geometry" />
        </mxCell>
        <mxCell id="iENfDvWW6Z7JMJDABJM3-37" style="edgeStyle=none;rounded=0;orthogonalLoop=1;jettySize=auto;html=1;endArrow=none;endFill=0;" parent="1" source="iENfDvWW6Z7JMJDABJM3-25" target="iENfDvWW6Z7JMJDABJM3-1" edge="1">
          <mxGeometry relative="1" as="geometry" />
        </mxCell>
        <mxCell id="iENfDvWW6Z7JMJDABJM3-25" value="&lt;u&gt;id&lt;/u&gt;" style="ellipse;whiteSpace=wrap;html=1;" parent="1" vertex="1">
          <mxGeometry x="130" y="390" width="60" height="40" as="geometry" />
        </mxCell>
        <mxCell id="iENfDvWW6Z7JMJDABJM3-38" value="" style="edgeStyle=none;rounded=0;orthogonalLoop=1;jettySize=auto;html=1;endArrow=none;endFill=0;" parent="1" source="iENfDvWW6Z7JMJDABJM3-26" target="iENfDvWW6Z7JMJDABJM3-1" edge="1">
          <mxGeometry relative="1" as="geometry" />
        </mxCell>
        <mxCell id="iENfDvWW6Z7JMJDABJM3-26" value="name" style="ellipse;whiteSpace=wrap;html=1;" parent="1" vertex="1">
          <mxGeometry x="70" y="430" width="60" height="40" as="geometry" />
        </mxCell>
        <mxCell id="iENfDvWW6Z7JMJDABJM3-44" value="Ingredients List" style="rounded=0;whiteSpace=wrap;html=1;" parent="1" vertex="1">
          <mxGeometry x="-275" y="260" width="120" height="60" as="geometry" />
        </mxCell>
        <mxCell id="iENfDvWW6Z7JMJDABJM3-47" value="contains" style="rhombus;whiteSpace=wrap;html=1;" parent="1" vertex="1">
          <mxGeometry x="205" y="300" width="70" height="50" as="geometry" />
        </mxCell>
        <mxCell id="iENfDvWW6Z7JMJDABJM3-58" style="edgeStyle=none;rounded=0;orthogonalLoop=1;jettySize=auto;html=1;entryX=0.152;entryY=1.026;entryDx=0;entryDy=0;entryPerimeter=0;endArrow=none;endFill=0;strokeWidth=1;" parent="1" source="iENfDvWW6Z7JMJDABJM3-54" target="iENfDvWW6Z7JMJDABJM3-44" edge="1">
          <mxGeometry relative="1" as="geometry" />
        </mxCell>
        <mxCell id="iENfDvWW6Z7JMJDABJM3-54" value="id" style="ellipse;whiteSpace=wrap;html=1;fontStyle=4" parent="1" vertex="1">
          <mxGeometry x="-355" y="320" width="60" height="40" as="geometry" />
        </mxCell>
        <mxCell id="iENfDvWW6Z7JMJDABJM3-60" style="edgeStyle=none;rounded=0;orthogonalLoop=1;jettySize=auto;html=1;endArrow=none;endFill=0;strokeWidth=1;" parent="1" source="iENfDvWW6Z7JMJDABJM3-57" target="iENfDvWW6Z7JMJDABJM3-44" edge="1">
          <mxGeometry relative="1" as="geometry" />
        </mxCell>
        <mxCell id="iENfDvWW6Z7JMJDABJM3-57" value="quantity" style="ellipse;whiteSpace=wrap;html=1;" parent="1" vertex="1">
          <mxGeometry x="-355" y="240" width="60" height="40" as="geometry" />
        </mxCell>
        <mxCell id="uWEL0mA8yHf8SfYQRgKw-93" style="edgeStyle=none;rounded=0;orthogonalLoop=1;jettySize=auto;html=1;entryX=0;entryY=0.5;entryDx=0;entryDy=0;endArrow=none;endFill=0;" parent="1" source="uWEL0mA8yHf8SfYQRgKw-1" target="uWEL0mA8yHf8SfYQRgKw-92" edge="1">
          <mxGeometry relative="1" as="geometry" />
        </mxCell>
        <mxCell id="uWEL0mA8yHf8SfYQRgKw-1" value="USER" style="rounded=0;whiteSpace=wrap;html=1;" parent="1" vertex="1">
          <mxGeometry x="-390" y="70" width="150" height="40" as="geometry" />
        </mxCell>
        <mxCell id="uWEL0mA8yHf8SfYQRgKw-40" style="rounded=0;orthogonalLoop=1;jettySize=auto;html=1;exitX=0.5;exitY=1;exitDx=0;exitDy=0;endArrow=none;endFill=0;" parent="1" source="uWEL0mA8yHf8SfYQRgKw-17" target="uWEL0mA8yHf8SfYQRgKw-1" edge="1">
          <mxGeometry relative="1" as="geometry" />
        </mxCell>
        <mxCell id="uWEL0mA8yHf8SfYQRgKw-17" value="Name" style="ellipse;whiteSpace=wrap;html=1;" parent="1" vertex="1">
          <mxGeometry x="-355" y="-40" width="80" height="50" as="geometry" />
        </mxCell>
        <mxCell id="uWEL0mA8yHf8SfYQRgKw-38" style="rounded=0;orthogonalLoop=1;jettySize=auto;html=1;exitX=0;exitY=0.5;exitDx=0;exitDy=0;entryX=0.75;entryY=1;entryDx=0;entryDy=0;endArrow=none;endFill=0;" parent="1" source="uWEL0mA8yHf8SfYQRgKw-18" target="uWEL0mA8yHf8SfYQRgKw-1" edge="1">
          <mxGeometry relative="1" as="geometry" />
        </mxCell>
        <mxCell id="uWEL0mA8yHf8SfYQRgKw-18" value="Email" style="ellipse;whiteSpace=wrap;html=1;" parent="1" vertex="1">
          <mxGeometry x="-185" y="140" width="50" height="30" as="geometry" />
        </mxCell>
        <mxCell id="uWEL0mA8yHf8SfYQRgKw-47" style="edgeStyle=none;rounded=0;orthogonalLoop=1;jettySize=auto;html=1;exitX=0.5;exitY=1;exitDx=0;exitDy=0;endArrow=none;endFill=0;" parent="1" source="uWEL0mA8yHf8SfYQRgKw-20" target="uWEL0mA8yHf8SfYQRgKw-1" edge="1">
          <mxGeometry relative="1" as="geometry" />
        </mxCell>
        <mxCell id="uWEL0mA8yHf8SfYQRgKw-20" value="Hashed Pass" style="ellipse;whiteSpace=wrap;html=1;" parent="1" vertex="1">
          <mxGeometry x="-210" y="10" width="90" height="40" as="geometry" />
        </mxCell>
        <mxCell id="uWEL0mA8yHf8SfYQRgKw-32" style="edgeStyle=orthogonalEdgeStyle;rounded=0;orthogonalLoop=1;jettySize=auto;html=1;exitX=1;exitY=0.5;exitDx=0;exitDy=0;endArrow=none;endFill=0;" parent="1" source="uWEL0mA8yHf8SfYQRgKw-22" target="uWEL0mA8yHf8SfYQRgKw-30" edge="1">
          <mxGeometry relative="1" as="geometry" />
        </mxCell>
        <mxCell id="uWEL0mA8yHf8SfYQRgKw-91" style="edgeStyle=none;rounded=0;orthogonalLoop=1;jettySize=auto;html=1;entryX=0.5;entryY=0;entryDx=0;entryDy=0;endArrow=none;endFill=0;" parent="1" source="uWEL0mA8yHf8SfYQRgKw-22" target="uWEL0mA8yHf8SfYQRgKw-90" edge="1">
          <mxGeometry relative="1" as="geometry" />
        </mxCell>
        <mxCell id="uWEL0mA8yHf8SfYQRgKw-22" value="Ingredient" style="rounded=0;whiteSpace=wrap;html=1;" parent="1" vertex="1">
          <mxGeometry x="-240" y="470" width="120" height="60" as="geometry" />
        </mxCell>
        <mxCell id="uWEL0mA8yHf8SfYQRgKw-87" style="edgeStyle=none;rounded=0;orthogonalLoop=1;jettySize=auto;html=1;exitX=1;exitY=0.5;exitDx=0;exitDy=0;endArrow=none;endFill=0;" parent="1" source="uWEL0mA8yHf8SfYQRgKw-23" target="uWEL0mA8yHf8SfYQRgKw-22" edge="1">
          <mxGeometry relative="1" as="geometry" />
        </mxCell>
        <mxCell id="uWEL0mA8yHf8SfYQRgKw-23" value="Name" style="ellipse;whiteSpace=wrap;html=1;" parent="1" vertex="1">
          <mxGeometry x="-335" y="500" width="60" height="30" as="geometry" />
        </mxCell>
        <mxCell id="uWEL0mA8yHf8SfYQRgKw-88" style="edgeStyle=none;rounded=0;orthogonalLoop=1;jettySize=auto;html=1;exitX=0.5;exitY=0;exitDx=0;exitDy=0;entryX=0.25;entryY=1;entryDx=0;entryDy=0;endArrow=none;endFill=0;" parent="1" source="uWEL0mA8yHf8SfYQRgKw-24" target="uWEL0mA8yHf8SfYQRgKw-22" edge="1">
          <mxGeometry relative="1" as="geometry" />
        </mxCell>
        <mxCell id="uWEL0mA8yHf8SfYQRgKw-24" value="Unit" style="ellipse;whiteSpace=wrap;html=1;" parent="1" vertex="1">
          <mxGeometry x="-280" y="560" width="60" height="30" as="geometry" />
        </mxCell>
        <mxCell id="uWEL0mA8yHf8SfYQRgKw-27" style="rounded=0;orthogonalLoop=1;jettySize=auto;html=1;exitX=0.5;exitY=1;exitDx=0;exitDy=0;endArrow=none;endFill=0;fontStyle=1" parent="1" source="uWEL0mA8yHf8SfYQRgKw-25" target="uWEL0mA8yHf8SfYQRgKw-22" edge="1">
          <mxGeometry relative="1" as="geometry" />
        </mxCell>
        <mxCell id="uWEL0mA8yHf8SfYQRgKw-28" style="rounded=0;orthogonalLoop=1;jettySize=auto;html=1;exitX=0.5;exitY=0;exitDx=0;exitDy=0;entryX=0.5;entryY=1;entryDx=0;entryDy=0;endArrow=none;endFill=0;strokeWidth=3;" parent="1" source="uWEL0mA8yHf8SfYQRgKw-25" target="iENfDvWW6Z7JMJDABJM3-44" edge="1">
          <mxGeometry relative="1" as="geometry" />
        </mxCell>
        <mxCell id="uWEL0mA8yHf8SfYQRgKw-25" value="contains" style="rhombus;whiteSpace=wrap;html=1;" parent="1" vertex="1">
          <mxGeometry x="-240" y="370" width="70" height="50" as="geometry" />
        </mxCell>
        <mxCell id="uWEL0mA8yHf8SfYQRgKw-30" value="contains" style="rhombus;whiteSpace=wrap;html=1;" parent="1" vertex="1">
          <mxGeometry x="-20" y="475" width="70" height="50" as="geometry" />
        </mxCell>
        <mxCell id="uWEL0mA8yHf8SfYQRgKw-39" style="rounded=0;orthogonalLoop=1;jettySize=auto;html=1;exitX=0.5;exitY=0;exitDx=0;exitDy=0;entryX=0.25;entryY=1;entryDx=0;entryDy=0;endArrow=none;endFill=0;" parent="1" source="uWEL0mA8yHf8SfYQRgKw-36" target="uWEL0mA8yHf8SfYQRgKw-1" edge="1">
          <mxGeometry relative="1" as="geometry" />
        </mxCell>
        <mxCell id="uWEL0mA8yHf8SfYQRgKw-36" value="Sign up date" style="ellipse;whiteSpace=wrap;html=1;" parent="1" vertex="1">
          <mxGeometry x="-425" y="150" width="80" height="30" as="geometry" />
        </mxCell>
        <mxCell id="uWEL0mA8yHf8SfYQRgKw-44" style="rounded=0;orthogonalLoop=1;jettySize=auto;html=1;exitX=0.5;exitY=0;exitDx=0;exitDy=0;endArrow=none;endFill=0;" parent="1" source="uWEL0mA8yHf8SfYQRgKw-42" target="iENfDvWW6Z7JMJDABJM3-1" edge="1">
          <mxGeometry relative="1" as="geometry" />
        </mxCell>
        <mxCell id="uWEL0mA8yHf8SfYQRgKw-42" value="Image" style="ellipse;whiteSpace=wrap;html=1;" parent="1" vertex="1">
          <mxGeometry x="220" y="600" width="60" height="40" as="geometry" />
        </mxCell>
        <mxCell id="uWEL0mA8yHf8SfYQRgKw-46" style="edgeStyle=none;rounded=0;orthogonalLoop=1;jettySize=auto;html=1;exitX=1;exitY=0.5;exitDx=0;exitDy=0;entryX=0;entryY=0.25;entryDx=0;entryDy=0;endArrow=none;endFill=0;" parent="1" source="uWEL0mA8yHf8SfYQRgKw-45" target="uWEL0mA8yHf8SfYQRgKw-1" edge="1">
          <mxGeometry relative="1" as="geometry" />
        </mxCell>
        <mxCell id="uWEL0mA8yHf8SfYQRgKw-45" value="&lt;u&gt;user_id&lt;/u&gt;" style="ellipse;whiteSpace=wrap;html=1;" parent="1" vertex="1">
          <mxGeometry x="-520" y="50" width="80" height="30" as="geometry" />
        </mxCell>
        <mxCell id="uWEL0mA8yHf8SfYQRgKw-74" style="edgeStyle=none;rounded=0;orthogonalLoop=1;jettySize=auto;html=1;exitX=0;exitY=0.5;exitDx=0;exitDy=0;entryX=1;entryY=0.25;entryDx=0;entryDy=0;endArrow=none;endFill=0;" parent="1" source="uWEL0mA8yHf8SfYQRgKw-48" target="iENfDvWW6Z7JMJDABJM3-1" edge="1">
          <mxGeometry relative="1" as="geometry" />
        </mxCell>
        <mxCell id="uWEL0mA8yHf8SfYQRgKw-75" style="edgeStyle=none;rounded=0;orthogonalLoop=1;jettySize=auto;html=1;exitX=1;exitY=0.25;exitDx=0;exitDy=0;entryX=0;entryY=1;entryDx=0;entryDy=0;endArrow=none;endFill=0;" parent="1" source="uWEL0mA8yHf8SfYQRgKw-48" target="uWEL0mA8yHf8SfYQRgKw-68" edge="1">
          <mxGeometry relative="1" as="geometry" />
        </mxCell>
        <mxCell id="uWEL0mA8yHf8SfYQRgKw-76" style="edgeStyle=none;rounded=0;orthogonalLoop=1;jettySize=auto;html=1;exitX=1;exitY=0.5;exitDx=0;exitDy=0;endArrow=none;endFill=0;" parent="1" source="uWEL0mA8yHf8SfYQRgKw-48" target="uWEL0mA8yHf8SfYQRgKw-69" edge="1">
          <mxGeometry relative="1" as="geometry" />
        </mxCell>
        <mxCell id="uWEL0mA8yHf8SfYQRgKw-78" style="edgeStyle=none;rounded=0;orthogonalLoop=1;jettySize=auto;html=1;exitX=1;exitY=0.75;exitDx=0;exitDy=0;endArrow=none;endFill=0;" parent="1" source="uWEL0mA8yHf8SfYQRgKw-48" target="uWEL0mA8yHf8SfYQRgKw-71" edge="1">
          <mxGeometry relative="1" as="geometry" />
        </mxCell>
        <mxCell id="uWEL0mA8yHf8SfYQRgKw-48" value="Cuisine" style="rounded=0;whiteSpace=wrap;html=1;" parent="1" vertex="1">
          <mxGeometry x="425" y="340" width="120" height="60" as="geometry" />
        </mxCell>
        <mxCell id="uWEL0mA8yHf8SfYQRgKw-52" value="breakfast" style="ellipse;shape=doubleEllipse;margin=3;whiteSpace=wrap;html=1;align=center;" parent="1" vertex="1">
          <mxGeometry x="30" y="710" width="100" height="40" as="geometry" />
        </mxCell>
        <mxCell id="uWEL0mA8yHf8SfYQRgKw-53" value="lunch" style="ellipse;shape=doubleEllipse;margin=3;whiteSpace=wrap;html=1;align=center;" parent="1" vertex="1">
          <mxGeometry x="-35" y="630" width="100" height="40" as="geometry" />
        </mxCell>
        <mxCell id="uWEL0mA8yHf8SfYQRgKw-54" value="dinner" style="ellipse;shape=doubleEllipse;margin=3;whiteSpace=wrap;html=1;align=center;" parent="1" vertex="1">
          <mxGeometry x="120" y="660" width="100" height="40" as="geometry" />
        </mxCell>
        <mxCell id="uWEL0mA8yHf8SfYQRgKw-59" style="edgeStyle=none;rounded=0;orthogonalLoop=1;jettySize=auto;html=1;exitX=0;exitY=0.5;exitDx=0;exitDy=0;endArrow=none;endFill=0;" parent="1" source="uWEL0mA8yHf8SfYQRgKw-58" target="iENfDvWW6Z7JMJDABJM3-1" edge="1">
          <mxGeometry relative="1" as="geometry" />
        </mxCell>
        <mxCell id="uWEL0mA8yHf8SfYQRgKw-65" style="edgeStyle=none;rounded=0;orthogonalLoop=1;jettySize=auto;html=1;exitX=1;exitY=0;exitDx=0;exitDy=0;entryX=0;entryY=0.5;entryDx=0;entryDy=0;endArrow=none;endFill=0;" parent="1" source="uWEL0mA8yHf8SfYQRgKw-58" target="uWEL0mA8yHf8SfYQRgKw-61" edge="1">
          <mxGeometry relative="1" as="geometry" />
        </mxCell>
        <mxCell id="uWEL0mA8yHf8SfYQRgKw-66" style="edgeStyle=none;rounded=0;orthogonalLoop=1;jettySize=auto;html=1;exitX=1;exitY=0.5;exitDx=0;exitDy=0;endArrow=none;endFill=0;" parent="1" source="uWEL0mA8yHf8SfYQRgKw-58" target="uWEL0mA8yHf8SfYQRgKw-62" edge="1">
          <mxGeometry relative="1" as="geometry" />
        </mxCell>
        <mxCell id="uWEL0mA8yHf8SfYQRgKw-67" style="edgeStyle=none;rounded=0;orthogonalLoop=1;jettySize=auto;html=1;exitX=1;exitY=1;exitDx=0;exitDy=0;endArrow=none;endFill=0;" parent="1" source="uWEL0mA8yHf8SfYQRgKw-58" target="uWEL0mA8yHf8SfYQRgKw-63" edge="1">
          <mxGeometry relative="1" as="geometry" />
        </mxCell>
        <mxCell id="uWEL0mA8yHf8SfYQRgKw-58" value="course" style="ellipse;whiteSpace=wrap;html=1;" parent="1" vertex="1">
          <mxGeometry x="340" y="480" width="60" height="40" as="geometry" />
        </mxCell>
        <mxCell id="uWEL0mA8yHf8SfYQRgKw-61" value="entree" style="ellipse;shape=doubleEllipse;margin=3;whiteSpace=wrap;html=1;align=center;" parent="1" vertex="1">
          <mxGeometry x="460" y="450" width="60" height="30" as="geometry" />
        </mxCell>
        <mxCell id="uWEL0mA8yHf8SfYQRgKw-62" value="main" style="ellipse;shape=doubleEllipse;margin=3;whiteSpace=wrap;html=1;align=center;" parent="1" vertex="1">
          <mxGeometry x="450" y="495" width="60" height="30" as="geometry" />
        </mxCell>
        <mxCell id="uWEL0mA8yHf8SfYQRgKw-63" value="dessert" style="ellipse;shape=doubleEllipse;margin=3;whiteSpace=wrap;html=1;align=center;" parent="1" vertex="1">
          <mxGeometry x="425" y="540" width="60" height="30" as="geometry" />
        </mxCell>
        <mxCell id="uWEL0mA8yHf8SfYQRgKw-68" value="mexican" style="ellipse;shape=doubleEllipse;margin=3;whiteSpace=wrap;html=1;align=center;" parent="1" vertex="1">
          <mxGeometry x="575" y="292.5" width="100" height="40" as="geometry" />
        </mxCell>
        <mxCell id="uWEL0mA8yHf8SfYQRgKw-69" value="indian" style="ellipse;shape=doubleEllipse;margin=3;whiteSpace=wrap;html=1;align=center;" parent="1" vertex="1">
          <mxGeometry x="585" y="340" width="100" height="40" as="geometry" />
        </mxCell>
        <mxCell id="uWEL0mA8yHf8SfYQRgKw-71" value="thai" style="ellipse;shape=doubleEllipse;margin=3;whiteSpace=wrap;html=1;align=center;" parent="1" vertex="1">
          <mxGeometry x="575" y="390" width="100" height="40" as="geometry" />
        </mxCell>
        <mxCell id="uWEL0mA8yHf8SfYQRgKw-79" value="1 or more" style="edgeLabel;html=1;align=center;verticalAlign=middle;resizable=0;points=[];" parent="1" vertex="1" connectable="0">
          <mxGeometry x="109.99999999999955" y="500.0028571428569" as="geometry" />
        </mxCell>
        <mxCell id="uWEL0mA8yHf8SfYQRgKw-85" style="edgeStyle=none;rounded=0;orthogonalLoop=1;jettySize=auto;html=1;exitX=0.5;exitY=1;exitDx=0;exitDy=0;endArrow=none;endFill=0;" parent="1" source="uWEL0mA8yHf8SfYQRgKw-80" target="uWEL0mA8yHf8SfYQRgKw-30" edge="1">
          <mxGeometry relative="1" as="geometry" />
        </mxCell>
        <mxCell id="uWEL0mA8yHf8SfYQRgKw-80" value="&lt;span style=&quot;border-bottom: 1px dotted&quot;&gt;Quantity&lt;/span&gt;" style="ellipse;whiteSpace=wrap;html=1;align=center;" parent="1" vertex="1">
          <mxGeometry x="-15" y="430" width="60" height="20" as="geometry" />
        </mxCell>
        <mxCell id="uWEL0mA8yHf8SfYQRgKw-90" value="id" style="ellipse;whiteSpace=wrap;html=1;align=center;fontStyle=4" parent="1" vertex="1">
          <mxGeometry x="-200" y="560" width="40" height="40" as="geometry" />
        </mxCell>
        <mxCell id="uWEL0mA8yHf8SfYQRgKw-95" style="edgeStyle=none;rounded=0;orthogonalLoop=1;jettySize=auto;html=1;entryX=0;entryY=0;entryDx=0;entryDy=0;endArrow=none;endFill=0;fontStyle=1;strokeWidth=3;" parent="1" source="uWEL0mA8yHf8SfYQRgKw-92" target="iENfDvWW6Z7JMJDABJM3-2" edge="1">
          <mxGeometry relative="1" as="geometry" />
        </mxCell>
        <mxCell id="uWEL0mA8yHf8SfYQRgKw-92" value="has many" style="shape=rhombus;perimeter=rhombusPerimeter;whiteSpace=wrap;html=1;align=center;" parent="1" vertex="1">
          <mxGeometry x="-100" y="60" width="120" height="60" as="geometry" />
        </mxCell>
        <mxCell id="uWEL0mA8yHf8SfYQRgKw-98" style="edgeStyle=none;rounded=0;orthogonalLoop=1;jettySize=auto;html=1;exitX=0;exitY=0.5;exitDx=0;exitDy=0;entryX=1;entryY=0.5;entryDx=0;entryDy=0;endArrow=none;endFill=0;strokeWidth=1;" parent="1" source="uWEL0mA8yHf8SfYQRgKw-96" target="iENfDvWW6Z7JMJDABJM3-44" edge="1">
          <mxGeometry relative="1" as="geometry" />
        </mxCell>
        <mxCell id="uWEL0mA8yHf8SfYQRgKw-96" value="has" style="shape=rhombus;perimeter=rhombusPerimeter;whiteSpace=wrap;html=1;align=center;" parent="1" vertex="1">
          <mxGeometry x="-75" y="220" width="120" height="60" as="geometry" />
        </mxCell>
      </root>
    </mxGraphModel>
  </diagram>
</mxfile>
